<mxfile host="app.diagrams.net" modified="2023-05-07T03:06:52.403Z" agent="Mozilla/5.0 (Windows NT 10.0; Win64; x64) AppleWebKit/537.36 (KHTML, like Gecko) Chrome/112.0.0.0 Safari/537.36 Edg/112.0.1722.68" version="21.2.7" etag="82Ki15WK2uplFcR4BZwa" type="github">
  <diagram name="第 1 页" id="YLOmwFaMCDr4EGwbLzrM">
    <mxGraphModel>
      <root>
        <mxCell id="0" />
        <mxCell id="1" parent="0" />
      </root>
    </mxGraphModel>
  </diagram>
</mxfile>
